# xmcd
#
# Track frame offsets:
#	183
#	13650
#	29213
#	40785
#	59563
#	77658
#	93580
#	110335
#	132400
#	147493
#	164393
#	184048
#	202803
#
# Disc length: 2957 seconds
#
# Revision: 1
# Processed by: cddbd v1.5.2PL0 Copyright (c) Steve Scherf et al.
# Submitted via: audiograbber 1.83.01
#
DISCID=b60b8b0d
DTITLE=Pony Express - Live on Stage - Tour 89/90
DYEAR=1990
DGENRE=Country
TTITLE0=Swinging
TTITLE1=Sixteen tons
TTITLE2=The truck driving man
TTITLE3=Red neck moth
TTITLE4=Lay down Sally
TTITLE5=God bless the USA
TTITLE6=The devil went down to Georgia
TTITLE7=Dixie-Medley
TTITLE8=The good hearted woman
TTITLE9=Rodeo man
TTITLE10=Driving my live away
TTITLE11=Americana
TTITLE12=Mountain music
EXTD=
EXTT0=
EXTT1=
EXTT2=
EXTT3=
EXTT4=
EXTT5=
EXTT6=
EXTT7=
EXTT8=
EXTT9=
EXTT10=
EXTT11=
EXTT12=
PLAYORDER=
